<mxfile host="Electron" modified="2023-12-02T09:14:29.675Z" agent="Mozilla/5.0 (Windows NT 10.0; Win64; x64) AppleWebKit/537.36 (KHTML, like Gecko) draw.io/21.6.8 Chrome/114.0.5735.289 Electron/25.5.0 Safari/537.36" etag="PSAZ412iabq4y9YyGcf5" version="21.6.8" type="device">
  <diagram id="C5RBs43oDa-KdzZeNtuy" name="Page-1">
    <mxGraphModel dx="1036" dy="606" grid="1" gridSize="10" guides="1" tooltips="1" connect="1" arrows="1" fold="1" page="1" pageScale="1" pageWidth="827" pageHeight="1169" math="0" shadow="0">
      <root>
        <mxCell id="WIyWlLk6GJQsqaUBKTNV-0" />
        <mxCell id="WIyWlLk6GJQsqaUBKTNV-1" parent="WIyWlLk6GJQsqaUBKTNV-0" />
        <mxCell id="Fe1muiPmKXjczjcnyyeZ-4" value="" style="edgeStyle=orthogonalEdgeStyle;rounded=0;orthogonalLoop=1;jettySize=auto;html=1;" edge="1" parent="WIyWlLk6GJQsqaUBKTNV-1" source="WIyWlLk6GJQsqaUBKTNV-3" target="Fe1muiPmKXjczjcnyyeZ-0">
          <mxGeometry relative="1" as="geometry" />
        </mxCell>
        <mxCell id="WIyWlLk6GJQsqaUBKTNV-3" value="Task 1. Start" style="rounded=1;whiteSpace=wrap;html=1;fontSize=12;glass=0;strokeWidth=1;shadow=0;" parent="WIyWlLk6GJQsqaUBKTNV-1" vertex="1">
          <mxGeometry x="160" y="80" width="120" height="40" as="geometry" />
        </mxCell>
        <mxCell id="Fe1muiPmKXjczjcnyyeZ-16" value="" style="edgeStyle=orthogonalEdgeStyle;rounded=0;orthogonalLoop=1;jettySize=auto;html=1;" edge="1" parent="WIyWlLk6GJQsqaUBKTNV-1" source="Fe1muiPmKXjczjcnyyeZ-0" target="Fe1muiPmKXjczjcnyyeZ-15">
          <mxGeometry relative="1" as="geometry" />
        </mxCell>
        <mxCell id="Fe1muiPmKXjczjcnyyeZ-0" value="string[ ] array =&amp;nbsp;&lt;br&gt;int count = 0&lt;br&gt;inti i = 0" style="shape=parallelogram;perimeter=parallelogramPerimeter;whiteSpace=wrap;html=1;fixedSize=1;" vertex="1" parent="WIyWlLk6GJQsqaUBKTNV-1">
          <mxGeometry x="70" y="140" width="300" height="60" as="geometry" />
        </mxCell>
        <mxCell id="Fe1muiPmKXjczjcnyyeZ-6" value="Yes" style="edgeStyle=orthogonalEdgeStyle;rounded=0;orthogonalLoop=1;jettySize=auto;html=1;" edge="1" parent="WIyWlLk6GJQsqaUBKTNV-1" source="Fe1muiPmKXjczjcnyyeZ-2" target="Fe1muiPmKXjczjcnyyeZ-5">
          <mxGeometry relative="1" as="geometry" />
        </mxCell>
        <mxCell id="Fe1muiPmKXjczjcnyyeZ-10" value="No" style="edgeStyle=orthogonalEdgeStyle;rounded=0;orthogonalLoop=1;jettySize=auto;html=1;exitX=1;exitY=0.5;exitDx=0;exitDy=0;entryX=1;entryY=0.5;entryDx=0;entryDy=0;" edge="1" parent="WIyWlLk6GJQsqaUBKTNV-1" source="Fe1muiPmKXjczjcnyyeZ-2" target="Fe1muiPmKXjczjcnyyeZ-11">
          <mxGeometry relative="1" as="geometry">
            <mxPoint x="340" y="520" as="targetPoint" />
          </mxGeometry>
        </mxCell>
        <mxCell id="Fe1muiPmKXjczjcnyyeZ-2" value="array[i].Length &amp;lt; 4 ?" style="rhombus;whiteSpace=wrap;html=1;" vertex="1" parent="WIyWlLk6GJQsqaUBKTNV-1">
          <mxGeometry x="120" y="330" width="200" height="80" as="geometry" />
        </mxCell>
        <mxCell id="Fe1muiPmKXjczjcnyyeZ-12" value="" style="edgeStyle=orthogonalEdgeStyle;rounded=0;orthogonalLoop=1;jettySize=auto;html=1;" edge="1" parent="WIyWlLk6GJQsqaUBKTNV-1" source="Fe1muiPmKXjczjcnyyeZ-5" target="Fe1muiPmKXjczjcnyyeZ-11">
          <mxGeometry relative="1" as="geometry" />
        </mxCell>
        <mxCell id="Fe1muiPmKXjczjcnyyeZ-5" value="count++" style="rounded=0;whiteSpace=wrap;html=1;" vertex="1" parent="WIyWlLk6GJQsqaUBKTNV-1">
          <mxGeometry x="160" y="440" width="120" height="60" as="geometry" />
        </mxCell>
        <mxCell id="Fe1muiPmKXjczjcnyyeZ-18" style="edgeStyle=orthogonalEdgeStyle;rounded=0;orthogonalLoop=1;jettySize=auto;html=1;entryX=0;entryY=0.5;entryDx=0;entryDy=0;" edge="1" parent="WIyWlLk6GJQsqaUBKTNV-1" source="Fe1muiPmKXjczjcnyyeZ-11" target="Fe1muiPmKXjczjcnyyeZ-15">
          <mxGeometry relative="1" as="geometry">
            <Array as="points">
              <mxPoint x="55" y="550" />
              <mxPoint x="55" y="260" />
            </Array>
          </mxGeometry>
        </mxCell>
        <mxCell id="Fe1muiPmKXjczjcnyyeZ-11" value="i++" style="rounded=0;whiteSpace=wrap;html=1;" vertex="1" parent="WIyWlLk6GJQsqaUBKTNV-1">
          <mxGeometry x="160" y="520" width="120" height="60" as="geometry" />
        </mxCell>
        <mxCell id="Fe1muiPmKXjczjcnyyeZ-17" value="Yes" style="edgeStyle=orthogonalEdgeStyle;rounded=0;orthogonalLoop=1;jettySize=auto;html=1;" edge="1" parent="WIyWlLk6GJQsqaUBKTNV-1" source="Fe1muiPmKXjczjcnyyeZ-15" target="Fe1muiPmKXjczjcnyyeZ-2">
          <mxGeometry relative="1" as="geometry" />
        </mxCell>
        <mxCell id="Fe1muiPmKXjczjcnyyeZ-20" value="No" style="edgeStyle=orthogonalEdgeStyle;rounded=0;orthogonalLoop=1;jettySize=auto;html=1;" edge="1" parent="WIyWlLk6GJQsqaUBKTNV-1" source="Fe1muiPmKXjczjcnyyeZ-15" target="Fe1muiPmKXjczjcnyyeZ-19">
          <mxGeometry relative="1" as="geometry" />
        </mxCell>
        <mxCell id="Fe1muiPmKXjczjcnyyeZ-15" value="i &amp;lt; array.Length ?" style="rhombus;whiteSpace=wrap;html=1;" vertex="1" parent="WIyWlLk6GJQsqaUBKTNV-1">
          <mxGeometry x="75" y="220" width="290" height="80" as="geometry" />
        </mxCell>
        <mxCell id="Fe1muiPmKXjczjcnyyeZ-22" value="" style="edgeStyle=orthogonalEdgeStyle;rounded=0;orthogonalLoop=1;jettySize=auto;html=1;exitX=0.5;exitY=1;exitDx=0;exitDy=0;" edge="1" parent="WIyWlLk6GJQsqaUBKTNV-1" source="Fe1muiPmKXjczjcnyyeZ-19">
          <mxGeometry relative="1" as="geometry">
            <mxPoint x="460" y="245" as="sourcePoint" />
            <mxPoint x="220" y="640" as="targetPoint" />
            <Array as="points">
              <mxPoint x="460" y="595" />
              <mxPoint x="220" y="595" />
            </Array>
          </mxGeometry>
        </mxCell>
        <mxCell id="Fe1muiPmKXjczjcnyyeZ-19" value="Output: count" style="whiteSpace=wrap;html=1;" vertex="1" parent="WIyWlLk6GJQsqaUBKTNV-1">
          <mxGeometry x="400" y="230" width="120" height="60" as="geometry" />
        </mxCell>
        <mxCell id="Fe1muiPmKXjczjcnyyeZ-46" value="" style="edgeStyle=orthogonalEdgeStyle;rounded=0;orthogonalLoop=1;jettySize=auto;html=1;" edge="1" parent="WIyWlLk6GJQsqaUBKTNV-1" source="Fe1muiPmKXjczjcnyyeZ-23" target="Fe1muiPmKXjczjcnyyeZ-44">
          <mxGeometry relative="1" as="geometry" />
        </mxCell>
        <mxCell id="Fe1muiPmKXjczjcnyyeZ-23" value="string[ ] newArray = new string [count]&lt;br&gt;int indexOfNewArray = 0&lt;br&gt;int j = 0&amp;nbsp;" style="shape=parallelogram;perimeter=parallelogramPerimeter;whiteSpace=wrap;html=1;fixedSize=1;" vertex="1" parent="WIyWlLk6GJQsqaUBKTNV-1">
          <mxGeometry x="75" y="640" width="290" height="60" as="geometry" />
        </mxCell>
        <mxCell id="Fe1muiPmKXjczjcnyyeZ-35" value="Yes" style="edgeStyle=orthogonalEdgeStyle;rounded=0;orthogonalLoop=1;jettySize=auto;html=1;" edge="1" parent="WIyWlLk6GJQsqaUBKTNV-1" source="Fe1muiPmKXjczjcnyyeZ-37" target="Fe1muiPmKXjczjcnyyeZ-39">
          <mxGeometry relative="1" as="geometry" />
        </mxCell>
        <mxCell id="Fe1muiPmKXjczjcnyyeZ-36" value="No" style="edgeStyle=orthogonalEdgeStyle;rounded=0;orthogonalLoop=1;jettySize=auto;html=1;exitX=1;exitY=0.5;exitDx=0;exitDy=0;entryX=1;entryY=0.5;entryDx=0;entryDy=0;" edge="1" parent="WIyWlLk6GJQsqaUBKTNV-1" source="Fe1muiPmKXjczjcnyyeZ-37" target="Fe1muiPmKXjczjcnyyeZ-41">
          <mxGeometry relative="1" as="geometry">
            <mxPoint x="340" y="1030" as="targetPoint" />
            <Array as="points">
              <mxPoint x="400" y="880" />
              <mxPoint x="400" y="1060" />
            </Array>
          </mxGeometry>
        </mxCell>
        <mxCell id="Fe1muiPmKXjczjcnyyeZ-37" value="array[j].Length &amp;lt; 4 ?" style="rhombus;whiteSpace=wrap;html=1;" vertex="1" parent="WIyWlLk6GJQsqaUBKTNV-1">
          <mxGeometry x="120" y="840" width="200" height="80" as="geometry" />
        </mxCell>
        <mxCell id="Fe1muiPmKXjczjcnyyeZ-38" value="" style="edgeStyle=orthogonalEdgeStyle;rounded=0;orthogonalLoop=1;jettySize=auto;html=1;" edge="1" parent="WIyWlLk6GJQsqaUBKTNV-1" source="Fe1muiPmKXjczjcnyyeZ-39" target="Fe1muiPmKXjczjcnyyeZ-41">
          <mxGeometry relative="1" as="geometry" />
        </mxCell>
        <mxCell id="Fe1muiPmKXjczjcnyyeZ-39" value="newArray[indexOfNewArray]=array[j]&amp;nbsp;&lt;br&gt;indexOfNewArray++" style="rounded=0;whiteSpace=wrap;html=1;" vertex="1" parent="WIyWlLk6GJQsqaUBKTNV-1">
          <mxGeometry x="90" y="950" width="260" height="60" as="geometry" />
        </mxCell>
        <mxCell id="Fe1muiPmKXjczjcnyyeZ-40" style="edgeStyle=orthogonalEdgeStyle;rounded=0;orthogonalLoop=1;jettySize=auto;html=1;entryX=0;entryY=0.5;entryDx=0;entryDy=0;" edge="1" parent="WIyWlLk6GJQsqaUBKTNV-1" source="Fe1muiPmKXjczjcnyyeZ-41" target="Fe1muiPmKXjczjcnyyeZ-44">
          <mxGeometry relative="1" as="geometry">
            <Array as="points">
              <mxPoint x="55" y="1060" />
              <mxPoint x="55" y="770" />
            </Array>
          </mxGeometry>
        </mxCell>
        <mxCell id="Fe1muiPmKXjczjcnyyeZ-41" value="j++" style="rounded=0;whiteSpace=wrap;html=1;" vertex="1" parent="WIyWlLk6GJQsqaUBKTNV-1">
          <mxGeometry x="160" y="1030" width="120" height="60" as="geometry" />
        </mxCell>
        <mxCell id="Fe1muiPmKXjczjcnyyeZ-42" value="Yes" style="edgeStyle=orthogonalEdgeStyle;rounded=0;orthogonalLoop=1;jettySize=auto;html=1;" edge="1" parent="WIyWlLk6GJQsqaUBKTNV-1" source="Fe1muiPmKXjczjcnyyeZ-44" target="Fe1muiPmKXjczjcnyyeZ-37">
          <mxGeometry relative="1" as="geometry" />
        </mxCell>
        <mxCell id="Fe1muiPmKXjczjcnyyeZ-43" value="No" style="edgeStyle=orthogonalEdgeStyle;rounded=0;orthogonalLoop=1;jettySize=auto;html=1;" edge="1" parent="WIyWlLk6GJQsqaUBKTNV-1" source="Fe1muiPmKXjczjcnyyeZ-44" target="Fe1muiPmKXjczjcnyyeZ-45">
          <mxGeometry relative="1" as="geometry" />
        </mxCell>
        <mxCell id="Fe1muiPmKXjczjcnyyeZ-44" value="j &amp;lt; array.Length ?" style="rhombus;whiteSpace=wrap;html=1;" vertex="1" parent="WIyWlLk6GJQsqaUBKTNV-1">
          <mxGeometry x="75" y="730" width="290" height="80" as="geometry" />
        </mxCell>
        <mxCell id="Fe1muiPmKXjczjcnyyeZ-45" value="Output: newArray" style="whiteSpace=wrap;html=1;" vertex="1" parent="WIyWlLk6GJQsqaUBKTNV-1">
          <mxGeometry x="400" y="740" width="120" height="60" as="geometry" />
        </mxCell>
      </root>
    </mxGraphModel>
  </diagram>
</mxfile>
